<svg width="28" height="28" viewBox="0 0 28 28" fill="none" xmlns="http://www.w3.org/2000/svg">
<g clip-path="url(#clip0_503_306)">
<path d="M23.7028 5.24055C21.9178 4.43555 20.0044 3.84055 18.0036 3.50222C17.9858 3.4988 17.9673 3.501 17.9508 3.50853C17.9343 3.51605 17.9205 3.52853 17.9114 3.54422C17.6664 3.97472 17.3934 4.53589 17.2021 4.97922C15.08 4.66216 12.9226 4.66216 10.8006 4.97922C10.5875 4.48789 10.3472 4.00882 10.0808 3.54422C10.0717 3.52833 10.0581 3.51558 10.0416 3.50766C10.0251 3.49974 10.0066 3.49703 9.98859 3.49989C7.98892 3.83822 6.07558 4.43322 4.28942 5.23939C4.27405 5.24583 4.26102 5.25682 4.25208 5.27089C0.621418 10.6084 -0.373749 15.8141 0.115084 20.9544C0.116444 20.967 0.120352 20.9792 0.12657 20.9902C0.132788 21.0012 0.141185 21.0109 0.151251 21.0186C2.27038 22.5614 4.63398 23.7367 7.14309 24.4952C7.16058 24.5006 7.17928 24.5006 7.19677 24.4952C7.21425 24.4898 7.22969 24.4792 7.24108 24.4649C7.78101 23.7428 8.25947 22.9767 8.67142 22.1747C8.67714 22.1638 8.68043 22.1517 8.68108 22.1393C8.68173 22.127 8.67972 22.1146 8.67518 22.1031C8.67065 22.0916 8.66369 22.0812 8.65479 22.0727C8.64589 22.0641 8.63525 22.0575 8.62358 22.0534C7.86992 21.7696 7.13968 21.4271 6.43958 21.0291C6.427 21.0219 6.4164 21.0117 6.40873 20.9994C6.40106 20.9871 6.39656 20.9731 6.39564 20.9587C6.39471 20.9442 6.39739 20.9297 6.40343 20.9166C6.40947 20.9034 6.41869 20.8919 6.43025 20.8832C6.57725 20.7747 6.72425 20.6616 6.86425 20.5484C6.87685 20.5382 6.89203 20.5317 6.9081 20.5297C6.92417 20.5276 6.94049 20.5301 6.95525 20.5367C11.5368 22.5947 16.4986 22.5947 21.0264 20.5367C21.0412 20.5297 21.0577 20.5269 21.074 20.5288C21.0903 20.5306 21.1058 20.537 21.1186 20.5472C21.2586 20.6616 21.4044 20.7747 21.5526 20.8832C21.5643 20.8918 21.5736 20.9031 21.5799 20.9161C21.5861 20.9292 21.589 20.9436 21.5883 20.958C21.5876 20.9725 21.5833 20.9865 21.5759 20.9989C21.5684 21.0113 21.558 21.0217 21.5456 21.0291C20.8479 21.4304 20.1223 21.7699 19.3604 22.0522C19.3487 22.0565 19.3381 22.0632 19.3292 22.0719C19.3202 22.0806 19.3133 22.091 19.3088 22.1026C19.3042 22.1142 19.3022 22.1267 19.3029 22.1391C19.3036 22.1515 19.3069 22.1637 19.3126 22.1747C19.7326 22.9762 20.2133 23.7392 20.7418 24.4637C20.7527 24.4786 20.768 24.4897 20.7856 24.4955C20.8031 24.5014 20.822 24.5017 20.8398 24.4964C23.3532 23.74 25.7206 22.5641 27.8421 21.0186C27.8524 21.0113 27.8611 21.002 27.8676 20.9911C27.874 20.9802 27.878 20.9681 27.8794 20.9556C28.4628 15.0126 26.9018 9.84889 23.7389 5.27322C23.7312 5.25835 23.7183 5.24676 23.7028 5.24055ZM9.35625 17.8242C7.97725 17.8242 6.83975 16.5771 6.83975 15.0476C6.83975 13.5169 7.95509 12.2709 9.35625 12.2709C10.7679 12.2709 11.8949 13.5274 11.8728 15.0476C11.8728 16.5782 10.7574 17.8242 9.35625 17.8242ZM18.6604 17.8242C17.2803 17.8242 16.1439 16.5771 16.1439 15.0476C16.1439 13.5169 17.2581 12.2709 18.6604 12.2709C20.0721 12.2709 21.1991 13.5274 21.1769 15.0476C21.1769 16.5782 20.0733 17.8242 18.6604 17.8242Z" fill="white"/>
</g>
<defs>
<clipPath id="clip0_503_306">
<rect width="28" height="28" fill="white"/>
</clipPath>
</defs>
</svg>
