<svg width="28" height="23" viewBox="0 0 28 23" fill="none" xmlns="http://www.w3.org/2000/svg">
<path d="M28 3.12937C26.9703 3.5737 25.8642 3.87392 24.7013 4.00962C25.9012 3.31046 26.7988 2.21005 27.2268 0.913729C26.0995 1.5658 24.8658 2.02479 23.5791 2.27074C22.7139 1.37111 21.5679 0.774817 20.3191 0.574446C19.0702 0.374075 17.7884 0.580832 16.6725 1.16262C15.5567 1.7444 14.6693 2.66866 14.1482 3.79191C13.627 4.91515 13.5012 6.17453 13.7904 7.37452C11.5062 7.26283 9.27163 6.68467 7.23174 5.67755C5.19185 4.67043 3.39221 3.25686 1.94962 1.52858C1.45636 2.3572 1.17273 3.31791 1.17273 4.34107C1.17218 5.26215 1.4051 6.16912 1.85081 6.98151C2.29653 7.7939 2.94127 8.48659 3.72783 8.99812C2.81563 8.96986 1.92356 8.72982 1.12587 8.298V8.37006C1.12578 9.6619 1.58464 10.914 2.42461 11.9139C3.26457 12.9138 4.43389 13.5999 5.73417 13.8557C4.88796 14.0787 4.00077 14.1116 3.13961 13.9518C3.50647 15.0634 4.22108 16.0354 5.1834 16.7318C6.14572 17.4282 7.30757 17.8141 8.5063 17.8355C6.47139 19.3911 3.95829 20.235 1.37127 20.2312C0.913004 20.2314 0.455128 20.2053 0 20.1532C2.62597 21.7974 5.68279 22.67 8.80472 22.6667C19.3729 22.6667 25.1502 14.1427 25.1502 6.75006C25.1502 6.50988 25.144 6.2673 25.1329 6.02712C26.2567 5.2357 27.2267 4.25568 27.9975 3.13297L28 3.12937V3.12937Z" fill="white"/>
</svg>
